#N canvas 534 220 400 300 10;
#X obj 50 20 inlet;
#X obj 50 70 osc~;
#X obj 150 70 phasor~;
#X obj 150 100 *~ 2;
#X obj 150 130 -~ 1;
#X obj 250 70 phasor~;
#X obj 250 100 -~ 0.5;
#X obj 250 130 *~ 1e+08;
#X obj 250 160 clip~ -1 1;
#X obj 350 70 phasor~;
#X obj 350 100 *~ 2;
#X obj 350 130 -~ 1;
#X obj 350 160 abs~;
#X obj 350 190 *~ 2;
#X obj 350 220 -~ 1;
#X obj 50 250 == 0;
#X obj 150 250 == 1;
#X obj 250 250 == 2;
#X obj 350 250 == 3;
#X obj 50 280 *~;
#X obj 150 280 *~;
#X obj 250 280 *~;
#X obj 350 280 *~;
#X obj 200 340 +~;
#X obj 200 370 +~;
#X obj 200 400 +~;
#X obj 200 430 outlet~;
#X obj 150 40 r $1_waveform;
#X obj 50 40 r $1_freq;
#X connect 0 0 1 0;
#X connect 0 0 2 0;
#X connect 0 0 5 0;
#X connect 0 0 9 0;
#X connect 1 0 19 0;
#X connect 2 0 3 0;
#X connect 3 0 4 0;
#X connect 4 0 20 0;
#X connect 5 0 6 0;
#X connect 6 0 7 0;
#X connect 7 0 8 0;
#X connect 8 0 21 0;
#X connect 9 0 10 0;
#X connect 10 0 11 0;
#X connect 11 0 12 0;
#X connect 12 0 13 0;
#X connect 13 0 14 0;
#X connect 14 0 22 0;
#X connect 15 0 19 1;
#X connect 16 0 20 1;
#X connect 17 0 21 1;
#X connect 18 0 22 1;
#X connect 19 0 23 0;
#X connect 20 0 23 1;
#X connect 21 0 24 1;
#X connect 22 0 25 1;
#X connect 23 0 24 0;
#X connect 24 0 25 0;
#X connect 25 0 26 0;
#X connect 27 0 15 0;
#X connect 27 0 16 0;
#X connect 27 0 17 0;
#X connect 27 0 18 0;
#X connect 28 0 1 0;
#X connect 28 0 2 0;
#X connect 28 0 5 0;
#X connect 28 0 9 0;
